<svg width="198" height="93" viewBox="0 0 198 93" fill="none" xmlns="http://www.w3.org/2000/svg">
<path d="M27.1199 91C42.0959 91 53.9999 80.76 53.9999 64.888C53.9999 57.592 50.2879 49.4 44.9119 45.304C43.8879 44.536 43.8879 43.384 44.9119 42.488C49.2639 38.648 52.2079 31.736 52.2079 25.208C52.2079 10.488 41.3279 1.39999 27.1199 1.39999H3.43988C2.03188 1.39999 0.879883 2.55199 0.879883 3.96V88.44C0.879883 89.848 2.03188 91 3.43988 91H27.1199ZM14.0639 38.264C13.2959 38.264 12.7839 37.752 12.7839 36.984V14.84C12.7839 14.072 13.2959 13.56 14.0639 13.56H27.1199C34.4159 13.56 39.6639 17.144 39.6639 25.208C39.6639 33.144 34.6719 38.264 27.1199 38.264H14.0639ZM14.0639 78.84C13.2959 78.84 12.7839 78.328 12.7839 77.56V51.064C12.7839 50.168 13.2959 49.784 14.0639 49.784H27.1199C35.1839 49.784 41.4559 56.312 41.4559 64.888C41.4559 73.72 34.9279 78.84 27.1199 78.84H14.0639Z" fill="#27312A"/>
<path d="M95.5749 92.28C108.375 92.28 117.079 85.624 121.175 77.048C125.015 69.112 125.271 58.104 125.271 46.2C125.271 34.296 125.015 23.288 121.175 15.352C117.079 6.77599 108.375 0.119995 95.5749 0.119995C82.7749 0.119995 74.0709 6.77599 69.9749 15.352C66.1349 23.288 65.8789 34.296 65.8789 46.2C65.8789 58.104 66.1349 69.112 69.9749 77.048C74.0709 85.624 82.7749 92.28 95.5749 92.28ZM95.5749 80.12C88.6629 80.12 83.9269 76.664 81.2389 71.544C78.5509 66.424 78.4229 55.672 78.4229 46.2C78.4229 36.728 78.5509 25.976 81.2389 20.856C83.9269 15.736 88.6629 12.28 95.5749 12.28C102.487 12.28 107.223 15.736 109.911 20.856C112.599 25.976 112.727 36.728 112.727 46.2C112.727 55.672 112.599 66.424 109.911 71.544C107.223 76.664 102.487 80.12 95.5749 80.12Z" fill="#27312A"/>
<path d="M195.39 13.56C196.798 13.56 197.95 12.408 197.95 11V3.96C197.95 2.55199 196.798 1.39999 195.39 1.39999H136.51C135.102 1.39999 133.95 2.55199 133.95 3.96V11C133.95 12.408 135.102 13.56 136.51 13.56H158.654C159.422 13.56 159.934 14.072 159.934 14.84V88.44C159.934 89.848 161.086 91 162.494 91H169.534C170.942 91 172.094 89.848 172.094 88.44V14.84C172.094 14.072 172.606 13.56 173.374 13.56H195.39Z" fill="#27312A"/>
</svg>
