<svg width="125" height="93" viewBox="0 0 125 93" fill="none" xmlns="http://www.w3.org/2000/svg">
<path d="M9.86416 91C11.2722 91 12.4242 89.848 12.4242 88.44V56.44C12.4242 55.672 12.9362 55.16 13.7042 55.16H21.5122C22.9202 55.16 23.5602 55.928 23.9442 56.696L39.3042 88.952C39.8162 89.976 40.7122 91 42.3762 91H50.1842C51.9762 91 52.7442 89.848 52.7442 88.696C52.7442 87.8 52.4882 87.16 52.2322 86.648L37.3842 56.44C37.0002 55.672 36.7442 55.032 36.7442 54.264C36.7442 53.112 37.7682 52.216 39.4322 51.192C47.1122 46.456 52.7442 39.288 52.7442 28.28C52.7442 12.152 40.7122 1.39999 25.8642 1.39999H2.82416C1.41616 1.39999 0.26416 2.55199 0.26416 3.96V88.44C0.26416 89.848 1.41616 91 2.82416 91H9.86416ZM13.7042 43C12.9362 43 12.4242 42.488 12.4242 41.72V14.84C12.4242 14.072 12.9362 13.56 13.7042 13.56H25.8642C33.6722 13.56 40.2002 18.936 40.2002 28.28C40.2002 37.624 33.6722 43 25.8642 43H13.7042Z" fill="#27312A"/>
<path d="M94.5752 92.28C107.375 92.28 116.079 85.624 120.175 77.048C124.015 69.112 124.271 58.104 124.271 46.2C124.271 34.296 124.015 23.288 120.175 15.352C116.079 6.77599 107.375 0.119995 94.5752 0.119995C81.7752 0.119995 73.0712 6.77599 68.9752 15.352C65.1352 23.288 64.8792 34.296 64.8792 46.2C64.8792 58.104 65.1352 69.112 68.9752 77.048C73.0712 85.624 81.7752 92.28 94.5752 92.28ZM94.5752 80.12C87.6632 80.12 82.9272 76.664 80.2392 71.544C77.5512 66.424 77.4232 55.672 77.4232 46.2C77.4232 36.728 77.5512 25.976 80.2392 20.856C82.9272 15.736 87.6632 12.28 94.5752 12.28C101.487 12.28 106.223 15.736 108.911 20.856C111.599 25.976 111.727 36.728 111.727 46.2C111.727 55.672 111.599 66.424 108.911 71.544C106.223 76.664 101.487 80.12 94.5752 80.12Z" fill="#27312A"/>
</svg>
