<svg width="271" height="93" viewBox="0 0 271 93" fill="none" xmlns="http://www.w3.org/2000/svg">
<path d="M29.5838 92.28C46.4798 92.28 58.1278 81.784 58.1278 66.424C58.1278 53.112 49.5518 42.616 35.7278 39.544C20.7518 36.216 15.5038 32.12 15.5038 24.184C15.5038 16.888 21.0078 12.28 30.0958 12.28C39.1838 12.28 44.6878 16.76 44.6878 24.44V26.104C44.6878 27.512 45.8398 28.664 47.2478 28.664H54.2878C55.6958 28.664 56.8478 27.512 56.8478 26.104V24.44C56.8478 9.336 46.7358 0.119995 30.3518 0.119995C14.6078 0.119995 2.95983 9.20799 2.95983 24.44C2.95983 38.392 11.9198 46.712 27.0238 50.168C40.2078 53.24 45.5838 58.104 45.5838 66.936C45.5838 74.744 39.0558 80.12 29.7118 80.12C19.7278 80.12 12.8158 74.104 12.8158 65.4V63.352C12.8158 61.944 11.6638 60.792 10.2558 60.792H3.08783C1.67983 60.792 0.527832 61.944 0.527832 63.352V65.4C0.527832 81.656 12.0478 92.28 29.5838 92.28Z" fill="#27312A"/>
<path d="M81.6548 91C83.0628 91 84.2148 89.848 84.2148 88.44V52.6C84.2148 51.832 84.7268 51.32 85.4948 51.32H113.655C114.423 51.32 114.935 51.832 114.935 52.6V88.44C114.935 89.848 116.087 91 117.495 91H124.535C125.943 91 127.095 89.848 127.095 88.44V3.96C127.095 2.55199 125.943 1.39999 124.535 1.39999H117.495C116.087 1.39999 114.935 2.55199 114.935 3.96V37.88C114.935 38.648 114.423 39.16 113.655 39.16H85.4948C84.7268 39.16 84.2148 38.648 84.2148 37.88V3.96C84.2148 2.55199 83.0628 1.39999 81.6548 1.39999H74.6148C73.2068 1.39999 72.0548 2.55199 72.0548 3.96V88.44C72.0548 89.848 73.2068 91 74.6148 91H81.6548Z" fill="#27312A"/>
<path d="M160.35 3.576C159.838 1.784 159.07 1.39999 157.662 1.39999H144.99C143.582 1.39999 142.43 2.55199 142.43 3.96V88.44C142.43 89.848 143.582 91 144.99 91H151.134C152.542 91 153.694 89.848 153.694 88.44V21.624C153.694 20.856 154.718 20.472 154.974 21.368L163.934 56.824C164.446 58.488 165.214 59 166.622 59H173.278C174.686 59 175.454 58.488 175.966 56.824L184.926 21.368C185.182 20.472 186.206 20.856 186.206 21.624V88.44C186.206 89.848 187.358 91 188.766 91H194.91C196.318 91 197.47 89.848 197.47 88.44V3.96C197.47 2.55199 196.318 1.39999 194.91 1.39999H182.238C180.83 1.39999 180.062 1.784 179.55 3.576L170.59 40.44C170.334 41.208 169.438 40.952 169.31 40.44L160.35 3.576Z" fill="#27312A"/>
<path d="M240.325 92.28C253.125 92.28 261.829 85.624 265.925 77.048C269.765 69.112 270.021 58.104 270.021 46.2C270.021 34.296 269.765 23.288 265.925 15.352C261.829 6.77599 253.125 0.119995 240.325 0.119995C227.525 0.119995 218.821 6.77599 214.725 15.352C210.885 23.288 210.629 34.296 210.629 46.2C210.629 58.104 210.885 69.112 214.725 77.048C218.821 85.624 227.525 92.28 240.325 92.28ZM240.325 80.12C233.413 80.12 228.677 76.664 225.989 71.544C223.301 66.424 223.173 55.672 223.173 46.2C223.173 36.728 223.301 25.976 225.989 20.856C228.677 15.736 233.413 12.28 240.325 12.28C247.237 12.28 251.973 15.736 254.661 20.856C257.349 25.976 257.477 36.728 257.477 46.2C257.477 55.672 257.349 66.424 254.661 71.544C251.973 76.664 247.237 80.12 240.325 80.12Z" fill="#27312A"/>
</svg>
