<svg id="ek9v8pnhoCX1" xmlns="http://www.w3.org/2000/svg" xmlns:xlink="http://www.w3.org/1999/xlink" viewBox="0 0 32 32" shape-rendering="geometricPrecision" text-rendering="geometricPrecision" width="32" height="32"><style><![CDATA[#ek9v8pnhoCX5_to {animation: ek9v8pnhoCX5_to__to 7000ms linear infinite normal forwards}@keyframes ek9v8pnhoCX5_to__to { 0% {transform: translate(20.5px,17.5px)} 14.285714% {transform: translate(20.5px,17.5px);animation-timing-function: step-start} 15.714286% {transform: translate(21.5px,17.5px);animation-timing-function: step-start} 17.142857% {transform: translate(22.5px,17.5px);animation-timing-function: step-start} 21.428571% {transform: translate(22.5px,17.5px);animation-timing-function: step-start} 22.857143% {transform: translate(21.5px,17.5px);animation-timing-function: step-start} 24.285714% {transform: translate(20.5px,17.5px)} 100% {transform: translate(20.5px,17.5px)}} #ek9v8pnhoCX6_to {animation: ek9v8pnhoCX6_to__to 7000ms linear infinite normal forwards}@keyframes ek9v8pnhoCX6_to__to { 0% {transform: translate(11.5px,17.5px)} 14.285714% {transform: translate(11.5px,17.5px);animation-timing-function: step-start} 15.714286% {transform: translate(12.5px,17.5px);animation-timing-function: step-start} 17.142857% {transform: translate(13.5px,17.5px);animation-timing-function: step-start} 21.428571% {transform: translate(13.5px,17.5px);animation-timing-function: step-start} 22.857143% {transform: translate(12.5px,17.5px);animation-timing-function: step-start} 24.285714% {transform: translate(11.5px,17.5px)} 100% {transform: translate(11.5px,17.5px)}} #ek9v8pnhoCX7 {animation: ek9v8pnhoCX7__sz 7000ms linear infinite normal forwards}@keyframes ek9v8pnhoCX7__sz { 0% {width: 6px;height: 1px} 37.142857% {width: 6px;height: 1px;animation-timing-function: step-start} 38.571429% {width: 6px;height: 2px;animation-timing-function: step-start} 44.285714% {width: 6px;height: 2px;animation-timing-function: step-start} 45.714286% {width: 6px;height: 1px} 100% {width: 6px;height: 1px}} #ek9v8pnhoCX7_to {animation: ek9v8pnhoCX7_to__to 7000ms linear infinite normal forwards}@keyframes ek9v8pnhoCX7_to__to { 0% {transform: translate(11px,20px)} 35.714286% {transform: translate(11px,20px);animation-timing-function: step-start} 37.142857% {transform: translate(11px,19px);animation-timing-function: step-start} 45.714286% {transform: translate(11px,19px);animation-timing-function: step-start} 47.142857% {transform: translate(11px,20px);animation-timing-function: step-start} 71.428571% {transform: translate(11px,20px);animation-timing-function: step-start} 72.857143% {transform: translate(11px,19px);animation-timing-function: step-start} 90% {transform: translate(11px,19px);animation-timing-function: step-start} 91.428571% {transform: translate(11px,20px)} 100% {transform: translate(11px,20px)}} #ek9v8pnhoCX8 {animation: ek9v8pnhoCX8__sz 7000ms linear infinite normal forwards}@keyframes ek9v8pnhoCX8__sz { 0% {width: 6px;height: 1px} 37.142857% {width: 6px;height: 1px;animation-timing-function: step-start} 38.571429% {width: 6px;height: 2px;animation-timing-function: step-start} 44.285714% {width: 6px;height: 2px;animation-timing-function: step-start} 45.714286% {width: 6px;height: 1px} 100% {width: 6px;height: 1px}} #ek9v8pnhoCX8_to {animation: ek9v8pnhoCX8_to__to 7000ms linear infinite normal forwards}@keyframes ek9v8pnhoCX8_to__to { 0% {transform: translate(20px,20px)} 35.714286% {transform: translate(20px,20px);animation-timing-function: step-start} 37.142857% {transform: translate(20px,19px);animation-timing-function: step-start} 45.714286% {transform: translate(20px,19px);animation-timing-function: step-start} 47.142857% {transform: translate(20px,20px);animation-timing-function: step-start} 71.428571% {transform: translate(20px,20px);animation-timing-function: step-start} 72.857143% {transform: translate(20px,19px);animation-timing-function: step-start} 90% {transform: translate(20px,19px);animation-timing-function: step-start} 91.428571% {transform: translate(20px,20px)} 100% {transform: translate(20px,20px)}} #ek9v8pnhoCX9 {animation: ek9v8pnhoCX9__sz 7000ms linear infinite normal forwards}@keyframes ek9v8pnhoCX9__sz { 0% {width: 6px;height: 1px} 37.142857% {width: 6px;height: 1px;animation-timing-function: step-start} 38.571429% {width: 6px;height: 2px;animation-timing-function: step-start} 40% {width: 6px;height: 3px;animation-timing-function: step-start} 44.285714% {width: 6px;height: 3px;animation-timing-function: step-start} 45.714286% {width: 6px;height: 2px;animation-timing-function: step-start} 47.142857% {width: 6px;height: 1px} 100% {width: 6px;height: 1px}} #ek9v8pnhoCX9_to {animation: ek9v8pnhoCX9_to__to 7000ms linear infinite normal forwards}@keyframes ek9v8pnhoCX9_to__to { 0% {transform: translate(11px,14.5px)} 35.714286% {transform: translate(11px,14.5px);animation-timing-function: step-start} 37.142857% {transform: translate(11px,15.5px);animation-timing-function: step-start} 47.142857% {transform: translate(11px,15.5px);animation-timing-function: step-start} 48.571429% {transform: translate(11px,14.5px);animation-timing-function: step-start} 71.428571% {transform: translate(11px,14.5px);animation-timing-function: step-start} 72.857143% {transform: translate(11px,15.5px);animation-timing-function: step-start} 90% {transform: translate(11px,15.5px);animation-timing-function: step-start} 91.428571% {transform: translate(11px,14.5px)} 100% {transform: translate(11px,14.5px)}} #ek9v8pnhoCX10 {animation: ek9v8pnhoCX10__sz 7000ms linear infinite normal forwards}@keyframes ek9v8pnhoCX10__sz { 0% {width: 6px;height: 1px} 37.142857% {width: 6px;height: 1px;animation-timing-function: step-start} 38.571429% {width: 6px;height: 2px;animation-timing-function: step-start} 40% {width: 6px;height: 3px;animation-timing-function: step-start} 44.285714% {width: 6px;height: 3px;animation-timing-function: step-start} 45.714286% {width: 6px;height: 2px;animation-timing-function: step-start} 47.142857% {width: 6px;height: 1px} 100% {width: 6px;height: 1px}} #ek9v8pnhoCX10_to {animation: ek9v8pnhoCX10_to__to 7000ms linear infinite normal forwards}@keyframes ek9v8pnhoCX10_to__to { 0% {transform: translate(20px,14.5px)} 35.714286% {transform: translate(20px,14.5px);animation-timing-function: step-start} 37.142857% {transform: translate(20px,15.5px);animation-timing-function: step-start} 47.142857% {transform: translate(20px,15.5px);animation-timing-function: step-start} 48.571429% {transform: translate(20px,14.5px);animation-timing-function: step-start} 71.428571% {transform: translate(20px,14.5px);animation-timing-function: step-start} 72.857143% {transform: translate(20px,15.5px);animation-timing-function: step-start} 90% {transform: translate(20px,15.5px);animation-timing-function: step-start} 91.428571% {transform: translate(20px,14.5px)} 100% {transform: translate(20px,14.5px)}} #ek9v8pnhoCX16 {animation: ek9v8pnhoCX16_c_o 7000ms linear infinite normal forwards}@keyframes ek9v8pnhoCX16_c_o { 0% {opacity: 0} 71.428571% {opacity: 0;animation-timing-function: step-start} 72.857143% {opacity: 1;animation-timing-function: step-start} 88.571429% {opacity: 1;animation-timing-function: step-start} 90% {opacity: 0} 100% {opacity: 0}} #ek9v8pnhoCX17 {animation: ek9v8pnhoCX17_c_o 7000ms linear infinite normal forwards}@keyframes ek9v8pnhoCX17_c_o { 0% {opacity: 0} 72.857143% {opacity: 0;animation-timing-function: step-start} 74.285714% {opacity: 1;animation-timing-function: step-start} 87.142857% {opacity: 1;animation-timing-function: step-start} 88.571429% {opacity: 0} 100% {opacity: 0}} #ek9v8pnhoCX18 {animation-name: ek9v8pnhoCX18__sz, ek9v8pnhoCX18_c_o;animation-duration: 7000ms;animation-fill-mode: forwards;animation-timing-function: linear;animation-direction: normal;animation-iteration-count: infinite;}@keyframes ek9v8pnhoCX18__sz { 0% {width: 1px;height: 2px} 78.571429% {width: 1px;height: 2px;animation-timing-function: step-start} 80% {width: 1px;height: 1px;animation-timing-function: step-start} 82.857143% {width: 1px;height: 1px;animation-timing-function: step-start} 84.285714% {width: 1px;height: 2px} 100% {width: 1px;height: 2px}}@keyframes ek9v8pnhoCX18_c_o { 0% {opacity: 0} 74.285714% {opacity: 0;animation-timing-function: step-start} 75.714286% {opacity: 1;animation-timing-function: step-start} 85.714286% {opacity: 1;animation-timing-function: step-start} 87.142857% {opacity: 0} 100% {opacity: 0}} #ek9v8pnhoCX18_to {animation: ek9v8pnhoCX18_to__to 7000ms linear infinite normal forwards}@keyframes ek9v8pnhoCX18_to__to { 0% {transform: translate(17.5px,30px)} 80% {transform: translate(17.5px,30px);animation-timing-function: step-start} 81.428571% {transform: translate(16.5px,30px);animation-timing-function: step-start} 82.857143% {transform: translate(17.5px,30px)} 100% {transform: translate(17.5px,30px)}} #ek9v8pnhoCX19_to {animation: ek9v8pnhoCX19_to__to 7000ms linear infinite normal forwards}@keyframes ek9v8pnhoCX19_to__to { 0% {transform: translate(16.5px,32px)} 78.571429% {transform: translate(16.5px,32px);animation-timing-function: step-start} 80% {transform: translate(16.5px,31px);animation-timing-function: step-start} 81.428571% {transform: translate(15.5px,31px);animation-timing-function: step-start} 82.857143% {transform: translate(16.5px,31px);animation-timing-function: step-start} 84.285714% {transform: translate(16.5px,32px)} 100% {transform: translate(16.5px,32px)}} #ek9v8pnhoCX19 {animation: ek9v8pnhoCX19_c_o 7000ms linear infinite normal forwards}@keyframes ek9v8pnhoCX19_c_o { 0% {opacity: 0} 75.714286% {opacity: 0;animation-timing-function: step-start} 77.142857% {opacity: 1;animation-timing-function: step-start} 84.285714% {opacity: 1;animation-timing-function: step-start} 85.714286% {opacity: 0} 100% {opacity: 0}} #ek9v8pnhoCX20_to {animation: ek9v8pnhoCX20_to__to 7000ms linear infinite normal forwards}@keyframes ek9v8pnhoCX20_to__to { 0% {transform: translate(18.5px,32px)} 78.571429% {transform: translate(18.5px,32px);animation-timing-function: step-start} 80% {transform: translate(18.5px,31px);animation-timing-function: step-start} 81.428571% {transform: translate(17.5px,31px);animation-timing-function: step-start} 82.857143% {transform: translate(18.5px,31px);animation-timing-function: step-start} 84.285714% {transform: translate(18.5px,32px)} 100% {transform: translate(18.5px,32px)}} #ek9v8pnhoCX20 {animation: ek9v8pnhoCX20_c_o 7000ms linear infinite normal forwards}@keyframes ek9v8pnhoCX20_c_o { 0% {opacity: 0} 75.714286% {opacity: 0;animation-timing-function: step-start} 77.142857% {opacity: 1;animation-timing-function: step-start} 84.285714% {opacity: 1;animation-timing-function: step-start} 85.714286% {opacity: 0} 100% {opacity: 0}}]]></style><path id="ek9v8pnhoCX2" d="M9,11L8,11L8,21L10,21L10,24L13,27L18,27L21,24L21,21L23,21L23,11L22,11L22,9L21,9L21,8L20,8L20,7L11,7L11,8L10,8L10,10L9,10L9,11Z" fill="rgb(125,230,121)" stroke="none" stroke-width="1"/><path id="ek9v8pnhoCX3" d="M15,1L16,1L17,1L18,1L18,2L19,2L19,3L20,3L20,4L21,4L21,5L22,5L22,7L23,7L23,9L24,9L24,15L23,15L23,11L22,11L22,9L21,9L21,8L20,8L20,7L19,7L18,7L17,7L16,7L15,7L14,7L13,7L12,7L11,7L11,8L10,8L10,10L9,10L9,11L8,11L8,15L7,15L7,9L8,9L8,8L9,8L9,7L10,7L10,5L11,5L11,4L12,4L12,3L13,3L13,2L14,2L15,2L15,1ZM13,12L13,13L9,13L9,12L13,12ZM13,13L14,13L14,14L13,14L13,13ZM18,13L17,13L17,14L18,14L18,13ZM18,13L22,13L22,12L18,12L18,13ZM18,22L13,22L13,23L12,23L11,23L11,24L10,24L10,21L9,21L8,21L8,23L9,23L9,25L10,25L10,27L11,27L11,28L12,28L12,29L13,29L13,30L18,30L18,29L19,29L19,28L20,28L20,27L21,27L21,25L22,25L22,23L23,23L23,21L22,21L21,21L21,24L20,24L20,23L19,23L18,23L18,22ZM14,27L13,27L13,25L12,25L12,24L13,24L18,24L19,24L19,25L18,25L18,27L17,27L17,26L16,26L16,25L15,25L15,26L14,26L14,27Z" clip-rule="evenodd" fill="rgb(78,68,58)" fill-rule="evenodd" stroke="none" stroke-width="1"/><path id="ek9v8pnhoCX4" d="M14,15L8,15L8,20L14,20L14,15ZM23,15L17,15L17,20L23,20L23,15Z" clip-rule="evenodd" fill="rgb(224,69,57)" fill-rule="evenodd" stroke="none" stroke-width="1"/><g id="ek9v8pnhoCX5_to" transform="translate(20.5,17.5)"><rect id="ek9v8pnhoCX5" width="1" height="1" rx="0" ry="0" transform="translate(-0.5,-0.5)" fill="rgb(0,0,0)" stroke="none" stroke-width="1"/></g><g id="ek9v8pnhoCX6_to" transform="translate(11.5,17.5)"><rect id="ek9v8pnhoCX6" width="1" height="1" rx="0" ry="0" transform="translate(-0.5,-0.5)" fill="rgb(0,0,0)" stroke="none" stroke-width="1"/></g><g id="ek9v8pnhoCX7_to" transform="translate(11,20)"><rect id="ek9v8pnhoCX7" width="6" height="1" rx="0" ry="0" transform="rotate(180) translate(-3,-1)" fill="rgb(125,230,121)" stroke="none" stroke-width="0"/></g><g id="ek9v8pnhoCX8_to" transform="translate(20,20)"><rect id="ek9v8pnhoCX8" width="6" height="1" rx="0" ry="0" transform="rotate(180) translate(-3,-1)" fill="rgb(125,230,121)" stroke="none" stroke-width="0"/></g><g id="ek9v8pnhoCX9_to" transform="translate(11,14.5)"><rect id="ek9v8pnhoCX9" width="6" height="1" rx="0" ry="0" transform="translate(-3,-0.5)" fill="rgb(125,230,121)" stroke="none" stroke-width="0"/></g><g id="ek9v8pnhoCX10_to" transform="translate(20,14.5)"><rect id="ek9v8pnhoCX10" width="6" height="1" rx="0" ry="0" transform="translate(-3,-0.5)" fill="rgb(125,230,121)" stroke="none" stroke-width="0"/></g><path id="ek9v8pnhoCX11" d="M14,14L8,14L8,15L7,15L6,15L6,16L7,16L7,20L8,20L8,21L14,21L14,20L15,20L15,16L16,16L16,20L17,20L17,21L23,21L23,20L24,20L24,19L24,16L25,16L25,15L24,15L23,15L23,14L17,14L17,15L16,15L15,15L14,15L14,14ZM17,15L23,15L23,19L23,20L17,20L17,15ZM14,15L14,20L8,20L8,15L14,15Z" clip-rule="evenodd" fill="rgb(0,0,0)" fill-rule="evenodd" stroke="none" stroke-width="1"/><rect id="ek9v8pnhoCX12" width="1" height="1" rx="0" ry="0" transform="matrix(1 0 0 1 13 24)" fill="rgb(255,255,255)" stroke="none" stroke-width="1"/><rect id="ek9v8pnhoCX13" width="1" height="1" rx="0" ry="0" transform="matrix(1 0 0 1 13 25)" fill="rgb(255,255,255)" stroke="none" stroke-width="1"/><rect id="ek9v8pnhoCX14" width="1" height="1" rx="0" ry="0" transform="matrix(1 0 0 1 17 24)" fill="rgb(255,255,255)" stroke="none" stroke-width="1"/><rect id="ek9v8pnhoCX15" width="1" height="1" rx="0" ry="0" transform="matrix(1 0 0 1 17 25)" fill="rgb(255,255,255)" stroke="none" stroke-width="1"/><rect id="ek9v8pnhoCX16" width="1" height="3" rx="0" ry="0" transform="matrix(1 0 0 1 15 24)" opacity="0" fill="rgb(224,69,57)" stroke="none" stroke-width="0"/><rect id="ek9v8pnhoCX17" width="1" height="2" rx="0" ry="0" transform="matrix(1 0 0 1 16 27)" opacity="0" fill="rgb(224,69,57)" stroke="none" stroke-width="0"/><g id="ek9v8pnhoCX18_to" transform="translate(17.5,30)"><rect id="ek9v8pnhoCX18" width="1" height="2" rx="0" ry="0" transform="translate(-0.5,-1)" opacity="0" fill="rgb(224,69,57)" stroke="none" stroke-width="0"/></g><g id="ek9v8pnhoCX19_to" transform="translate(16.5,32)"><rect id="ek9v8pnhoCX19" width="1" height="1" rx="0" ry="0" transform="translate(-0.5,-1)" opacity="0" fill="rgb(224,69,57)" stroke="none" stroke-width="0"/></g><g id="ek9v8pnhoCX20_to" transform="translate(18.5,32)"><rect id="ek9v8pnhoCX20" width="1" height="1" rx="0" ry="0" transform="translate(-0.5,-1)" opacity="0" fill="rgb(224,69,57)" stroke="none" stroke-width="0"/></g></svg>