<svg width="32" height="32" viewBox="0 0 32 32" fill="none" xmlns="http://www.w3.org/2000/svg">
<path d="M9 11H8V21H10V24L13 27H18L21 24V21H23V11H22V9H21V8H20V7H11V8H10V10H9V11Z" fill="#FFF1D6"/>
<path fill-rule="evenodd" clip-rule="evenodd" d="M15 1H16H17H18V2H19V3H20V4H21V5H22V7H23V9H24V15H23V11H22V9H21V8H20V7H19H18H17H16H15H14H13H12H11V8H10V10H9V11H8V15H7V9H8V8H9V7H10V5H11V4H12V3H13V2H14H15V1ZM9 12H14V13H9V12ZM17 12H22V13H17V12ZM19 22H12V23H11V24H10V21H9H8V25H9V27H10V28H11V29H12V30H13V31H18V30H19V29H20V28H21V27H22V25H23V21H22H21V24H20V23H19V22ZM14 27H13V25V24H18V25V27H17V26H16V25H15V26H14V27Z" fill="#685D53"/>
<path fill-rule="evenodd" clip-rule="evenodd" d="M14 15H8V20H14V15ZM23 15H17V20H23V15Z" fill="white"/>
<path fill-rule="evenodd" clip-rule="evenodd" d="M14 14H8V15H7H6V16H7V20H8V21H14V20H15V16H16V20H17V21H23V20H24V19V16H25V15H24H23V14H17V15H16H15H14V14ZM17 15H23V19V20H17V15ZM14 15V20H8V15H14Z" fill="#9F9B9B"/>
<rect x="12" y="16" width="1" height="2" fill="black"/>
<rect x="21" y="16" width="1" height="2" fill="black"/>
</svg>
