<svg width="32" height="32" viewBox="0 0 32 32" fill="none" xmlns="http://www.w3.org/2000/svg">
<path d="M9 11H8V21H10V24L13 27H18L21 24V21H23V11H22V9H21V8H20V7H11V8H10V10H9V11Z" fill="#7DE679"/>
<path fill-rule="evenodd" clip-rule="evenodd" d="M15 1H16H17H18V2H19V3H20V4H21V5H22V7H23V9H24V15H23V11H22V9H21V8H20V7H19H18H17H16H15H14H13H12H11V8H10V10H9V11H8V15H7V9H8V8H9V7H10V5H11V4H12V3H13V2H14H15V1ZM13 12V13H9V12H13ZM13 13H14V14H13V13ZM18 13H17V14H18V13ZM18 13H22V12H18V13ZM18 22H13V23H12H11V24H10V21H9H8V23H9V25H10V27H11V28H12V29H13V30H18V29H19V28H20V27H21V25H22V23H23V21H22H21V24H20V23H19H18V22ZM14 27H13V25H12V24H13H18H19V25H18V27H17V26H16V25H15V26H14V27Z" fill="#4E443A"/>
<path fill-rule="evenodd" clip-rule="evenodd" d="M14 15H8V20H14V15ZM23 15H17V20H23V15Z" fill="#E04539"/>
<path fill-rule="evenodd" clip-rule="evenodd" d="M14 14H8V15H7H6V16H7V20H8V21H14V20H15V16H16V20H17V21H23V20H24V19V16H25V15H24H23V14H17V15H16H15H14V14ZM17 15H23V19V20H17V15ZM14 15V20H8V15H14Z" fill="black"/>
<rect x="11" y="17" width="1" height="1" fill="black"/>
<rect x="20" y="17" width="1" height="1" fill="black"/>
<rect x="13" y="24" width="1" height="1" fill="white"/>
<rect x="13" y="25" width="1" height="1" fill="white"/>
<rect x="17" y="24" width="1" height="1" fill="white"/>
<rect x="17" y="25" width="1" height="1" fill="white"/>
</svg>
