<svg width="24" height="24" viewBox="0 0 24 24" fill="none" xmlns="http://www.w3.org/2000/svg">
<rect x="9" y="5" width="1" height="1" fill="#2A261F"/>
<rect x="8" y="6" width="1" height="1" fill="#5A473C"/>
<rect x="9" y="6" width="1" height="1" fill="#5A473C"/>
<rect x="10" y="6" width="1" height="1" fill="#5A473C"/>
<rect x="11" y="6" width="1" height="1" fill="#5A473C"/>
<rect x="12" y="6" width="1" height="1" fill="#5A473C"/>
<rect x="13" y="6" width="1" height="1" fill="#5A473C"/>
<rect x="14" y="7" width="1" height="1" fill="#5A473C"/>
<rect x="13" y="7" width="1" height="1" fill="#5A473C"/>
<rect x="12" y="7" width="1" height="1" fill="#5A473C"/>
<rect x="11" y="7" width="1" height="1" fill="#5A473C"/>
<rect x="10" y="7" width="1" height="1" fill="#5A473C"/>
<rect x="8" y="7" width="1" height="1" fill="#5A473C"/>
<rect x="7" y="7" width="1" height="1" fill="#5A473C"/>
<rect x="7" y="8" width="1" height="1" fill="#5A473C"/>
<rect x="6" y="9" width="1" height="1" fill="#5A473C"/>
<rect x="6" y="10" width="1" height="1" fill="#5A473C"/>
<rect x="6" y="11" width="1" height="1" fill="#5A473C"/>
<rect x="6" y="12" width="1" height="1" fill="#5A473C"/>
<rect x="7" y="9" width="1" height="1" fill="#5A473C"/>
<rect x="7" y="10" width="1" height="1" fill="#5A473C"/>
<rect x="7" y="11" width="1" height="1" fill="#5A473C"/>
<rect x="11" y="21" width="1" height="1" fill="#5A473C"/>
<rect x="12" y="21" width="1" height="1" fill="#715D52"/>
<rect x="13" y="21" width="1" height="1" fill="#715D52"/>
<rect x="14" y="21" width="1" height="1" fill="#5A473C"/>
<rect x="7" y="13" width="1" height="1" fill="#5A473C"/>
<rect x="7" y="13" width="1" height="1" fill="#5A473C"/>
<rect x="7" y="14" width="1" height="1" fill="#5A473C"/>
<rect x="7" y="17" width="1" height="1" fill="#5A473C"/>
<rect x="8" y="18" width="1" height="1" fill="#5A473C"/>
<rect x="8" y="16" width="1" height="1" fill="#5A473C"/>
<rect x="10" y="20" width="1" height="1" fill="#5A473C"/>
<rect x="10" y="18" width="1" height="1" fill="#5A473C"/>
<rect x="7" y="15" width="1" height="1" fill="#6C5549"/>
<rect x="9" y="19" width="1" height="1" fill="#6C5549"/>
<rect x="9" y="17" width="1" height="1" fill="#6C5549"/>
<rect x="11" y="19" width="1" height="1" fill="#6C5549"/>
<rect x="11" y="20" width="1" height="1" fill="#6C5549"/>
<rect x="10" y="19" width="1" height="1" fill="#6C5549"/>
<rect x="9" y="18" width="1" height="1" fill="#6C5549"/>
<rect x="8" y="17" width="1" height="1" fill="#6C5549"/>
<rect x="7" y="16" width="1" height="1" fill="#6C5549"/>
<rect x="11" y="18" width="1" height="1" fill="#6C5549"/>
<rect x="10" y="18" width="1" height="1" fill="#DAA492"/>
<rect x="10" y="17" width="1" height="1" fill="#DAA492"/>
<rect x="9" y="17" width="1" height="1" fill="#CB9788"/>
<rect x="8" y="16" width="1" height="1" fill="#CB9788"/>
<rect x="6" y="14" width="1" height="1" fill="#CB9788"/>
<rect x="6" y="15" width="1" height="1" fill="#CB9788"/>
<rect x="6" y="13" width="1" height="1" fill="#CB9788"/>
<rect x="9" y="15" width="1" height="1" fill="#CB9788"/>
<rect x="9" y="14" width="1" height="1" fill="#CB9788"/>
<rect x="8" y="11" width="1" height="1" fill="#CB9788"/>
<rect x="8" y="10" width="1" height="1" fill="#CB9788"/>
<rect x="8" y="9" width="1" height="1" fill="#CB9788"/>
<rect x="9" y="8" width="1" height="1" fill="#CB9788"/>
<rect x="9" y="7" width="1" height="1" fill="#CB9788"/>
<rect x="11" y="17" width="1" height="1" fill="#DAA492"/>
<rect x="12" y="17" width="1" height="1" fill="#BF6F6A"/>
<rect x="13" y="17" width="1" height="1" fill="#BF6F6A"/>
<rect x="14" y="17" width="1" height="1" fill="#DAA492"/>
<rect x="15" y="17" width="1" height="1" fill="#DAA492"/>
<rect x="16" y="17" width="1" height="1" fill="#DAA492"/>
<rect x="15" y="18" width="1" height="1" fill="#DAA492"/>
<rect x="14" y="16" width="1" height="1" fill="#DAA492"/>
<rect x="15" y="15" width="1" height="1" fill="#DAA492"/>
<rect x="15" y="14" width="1" height="1" fill="#DAA492"/>
<rect x="9" y="13" width="1" height="1" fill="#DAA492"/>
<rect x="9" y="11" width="1" height="1" fill="#DAA492"/>
<rect x="9" y="10" width="1" height="1" fill="#DAA492"/>
<rect x="9" y="9" width="1" height="1" fill="#DAA492"/>
<rect x="10" y="13" width="1" height="1" fill="white"/>
<rect x="16" y="13" width="1" height="1" fill="white"/>
<rect x="10" y="14" width="1" height="1" fill="white"/>
<rect x="16" y="14" width="1" height="1" fill="white"/>
<rect x="10" y="15" width="1" height="1" fill="white"/>
<rect x="16" y="15" width="1" height="1" fill="white"/>
<rect x="10" y="11" width="1" height="1" fill="#DAA492"/>
<rect x="10" y="10" width="1" height="1" fill="#DAA492"/>
<rect x="10" y="9" width="1" height="1" fill="#DAA492"/>
<rect x="10" y="8" width="1" height="1" fill="#DAA492"/>
<rect x="11" y="13" width="1" height="1" fill="white"/>
<rect x="17" y="13" width="1" height="1" fill="white"/>
<rect x="11" y="14" width="1" height="1" fill="black"/>
<rect x="17" y="14" width="1" height="1" fill="black"/>
<rect x="11" y="15" width="1" height="1" fill="white"/>
<rect x="17" y="15" width="1" height="1" fill="white"/>
<rect x="11" y="11" width="1" height="1" fill="#DAA492"/>
<rect x="11" y="10" width="1" height="1" fill="#DAA492"/>
<rect x="11" y="9" width="1" height="1" fill="#DAA492"/>
<rect x="13" y="12" width="1" height="1" fill="#DAA492"/>
<rect x="12" y="11" width="1" height="1" fill="#DAA492"/>
<rect x="12" y="10" width="1" height="1" fill="#DAA492"/>
<rect x="12" y="9" width="1" height="1" fill="#DAA492"/>
<rect x="13" y="13" width="1" height="1" fill="#DAA492"/>
<rect x="13" y="11" width="1" height="1" fill="#DAA492"/>
<rect x="13" y="10" width="1" height="1" fill="#DAA492"/>
<rect x="13" y="9" width="1" height="1" fill="#DAA492"/>
<rect x="13" y="14" width="1" height="1" fill="#DAA492"/>
<rect x="14" y="11" width="1" height="1" fill="#DAA492"/>
<rect x="14" y="10" width="1" height="1" fill="#DAA492"/>
<rect x="14" y="9" width="1" height="1" fill="#DAA492"/>
<rect x="15" y="13" width="1" height="1" fill="#DAA492"/>
<rect x="15" y="11" width="1" height="1" fill="#DAA492"/>
<rect x="15" y="10" width="1" height="1" fill="#DAA492"/>
<rect x="15" y="9" width="1" height="1" fill="#DAA492"/>
<rect x="16" y="9" width="1" height="1" fill="#DAA492"/>
<rect x="16" y="10" width="1" height="1" fill="#DDAEA0"/>
<rect x="16" y="11" width="1" height="1" fill="#DDAEA0"/>
<rect x="16" y="8" width="1" height="1" fill="#DAA492"/>
<rect x="13" y="15" width="1" height="1" fill="#BF6F6A"/>
<rect x="13" y="14" width="1" height="1" fill="#BF6F6A"/>
<rect x="13" y="16" width="1" height="1" fill="#BF6F6A"/>
<rect x="12" y="16" width="1" height="1" fill="#DAA492"/>
<rect x="7" y="12" width="1" height="1" fill="#333333"/>
<rect x="8" y="12" width="1" height="1" fill="#333333"/>
<rect x="9" y="12" width="1" height="1" fill="#333333"/>
<rect x="10" y="12" width="1" height="1" fill="#333333"/>
<rect x="11" y="12" width="1" height="1" fill="#333333"/>
<rect x="12" y="12" width="1" height="1" fill="#333333"/>
<rect x="12" y="14" width="1" height="1" fill="#333333"/>
<rect x="12" y="13" width="1" height="1" fill="#333333"/>
<rect x="12" y="15" width="1" height="1" fill="#333333"/>
<rect x="11" y="16" width="1" height="1" fill="#333333"/>
<rect x="10" y="16" width="1" height="1" fill="#333333"/>
<rect x="9" y="16" width="1" height="1" fill="#333333"/>
<rect x="8" y="15" width="1" height="1" fill="#333333"/>
<rect x="8" y="14" width="1" height="1" fill="#333333"/>
<rect x="8" y="13" width="1" height="1" fill="#333333"/>
<rect x="13" y="13" width="1" height="1" fill="#333333"/>
<rect x="14" y="12" width="1" height="1" fill="#333333"/>
<rect x="15" y="12" width="1" height="1" fill="#333333"/>
<rect x="16" y="12" width="1" height="1" fill="#333333"/>
<rect x="17" y="12" width="1" height="1" fill="#333333"/>
<rect x="18" y="14" width="1" height="1" fill="#333333"/>
<rect x="18" y="13" width="1" height="1" fill="#333333"/>
<rect x="18" y="12" width="1" height="1" fill="#333333"/>
<rect x="18" y="15" width="1" height="1" fill="#333333"/>
<rect x="17" y="16" width="1" height="1" fill="#333333"/>
<rect x="16" y="16" width="1" height="1" fill="#333333"/>
<rect x="15" y="16" width="1" height="1" fill="#333333"/>
<rect x="14" y="15" width="1" height="1" fill="#333333"/>
<rect x="14" y="14" width="1" height="1" fill="#333333"/>
<rect x="14" y="13" width="1" height="1" fill="#333333"/>
<rect x="12" y="18" width="1" height="1" fill="#6C5549"/>
<rect x="13" y="18" width="1" height="1" fill="#6C5549"/>
<rect x="14" y="18" width="1" height="1" fill="#6C5549"/>
<rect x="12" y="19" width="1" height="1" fill="#6C5549"/>
<rect x="12" y="20" width="1" height="1" fill="#715D52"/>
<rect x="13" y="20" width="1" height="1" fill="#715D52"/>
<rect x="14" y="20" width="1" height="1" fill="#6C5549"/>
<rect x="15" y="20" width="1" height="1" fill="#6C5549"/>
<rect x="15" y="19" width="1" height="1" fill="#6C5549"/>
<rect x="14" y="19" width="1" height="1" fill="#6C5549"/>
<rect x="13" y="19" width="1" height="1" fill="#6C5549"/>
<rect x="16" y="19" width="1" height="1" fill="#6C5549"/>
<rect x="16" y="18" width="1" height="1" fill="#8E7567"/>
<rect x="8" y="8" width="1" height="1" fill="#5A473C"/>
<rect x="11" y="8" width="1" height="1" fill="#5A473C"/>
<rect x="12" y="8" width="1" height="1" fill="#5A473C"/>
<rect x="13" y="8" width="1" height="1" fill="#5A473C"/>
<rect x="14" y="6" width="1" height="1" fill="#5A473C"/>
<rect x="14" y="5" width="1" height="1" fill="#5A473C"/>
<rect x="14" y="3" width="1" height="1" fill="#5A473C"/>
<rect x="14" y="4" width="1" height="1" fill="#5A473C"/>
<rect x="15" y="3" width="1" height="1" fill="#5A473C"/>
<rect x="15" y="5" width="1" height="1" fill="#715D52"/>
<rect x="15" y="4" width="1" height="1" fill="#715D52"/>
<rect x="15" y="6" width="1" height="1" fill="#715D52"/>
<rect x="15" y="7" width="1" height="1" fill="#715D52"/>
<rect x="14" y="8" width="1" height="1" fill="#715D52"/>
<rect x="16" y="5" width="1" height="1" fill="#715D52"/>
<rect x="16" y="3" width="1" height="1" fill="#715D52"/>
<rect x="16" y="4" width="1" height="1" fill="#715D52"/>
<rect x="16" y="6" width="1" height="1" fill="#715D52"/>
<rect x="16" y="7" width="1" height="1" fill="#715D52"/>
<rect x="15" y="8" width="1" height="1" fill="#715D52"/>
<rect x="17" y="7" width="1" height="1" fill="#8E7567"/>
<rect x="17" y="8" width="1" height="1" fill="#8E7567"/>
<rect x="13" y="5" width="1" height="1" fill="#5A473C"/>
<rect x="12" y="5" width="1" height="1" fill="#5A473C"/>
<rect x="11" y="5" width="1" height="1" fill="#5A473C"/>
<rect x="7" y="6" width="1" height="1" fill="#2A261F"/>
<rect x="6" y="7" width="1" height="1" fill="#2A261F"/>
<rect x="6" y="8" width="1" height="1" fill="#2A261F"/>
<rect x="7" y="18" width="1" height="1" fill="#2A261F"/>
<rect x="8" y="19" width="1" height="1" fill="#2A261F"/>
<rect x="9" y="20" width="1" height="1" fill="#2A261F"/>
<rect x="10" y="21" width="1" height="1" fill="#2A261F"/>
<rect x="10" y="5" width="1" height="1" fill="#2A261F"/>
<rect x="13" y="4" width="1" height="1" fill="#2A261F"/>
<rect x="14" y="3" width="1" height="1" fill="#2A261F"/>
<rect x="12" y="4" width="1" height="1" fill="#2A261F"/>
<rect x="11" y="4" width="1" height="1" fill="#2A261F"/>
</svg>
